<?xml version="1.0" encoding="utf-8"?>
<!-- Generator: Adobe Illustrator 17.1.0, SVG Export Plug-In . SVG Version: 6.00 Build 0)  -->
<!DOCTYPE svg PUBLIC "-//W3C//DTD SVG 1.1//EN" "http://www.w3.org/Graphics/SVG/1.1/DTD/svg11.dtd">
<svg version="1.1" id="Layer_1" xmlns="http://www.w3.org/2000/svg" xmlns:xlink="http://www.w3.org/1999/xlink" x="0px" y="0px"
	 width="212px" height="55px" viewBox="0 0 212 55" enable-background="new 0 0 212 55" xml:space="preserve">
<g>
	<polygon fill="#1D1D1B" points="68.5,25 73.4,25 73.4,5 80.1,5 80.1,0.2 61.8,0.2 61.8,5 68.5,5 	"/>
	<path fill="#1D1D1B" d="M53.6,16.4c0,2.1-1.6,3.6-3.7,3.6c-2.1,0-3.7-1.5-3.7-3.6l0-16.2h-5v16.2c0,5,3.7,8.6,8.7,8.6
		c5,0,8.7-3.6,8.7-8.6V0.2h-5V16.4z"/>
	<path fill="#1D1D1B" d="M119.5,12.6c1.2-0.7,2.4-2.5,2.4-5c0-4.3-3.2-7.4-7.4-7.4h-9.1V25h9.2c4.4,0,7.4-3,7.4-7.4
		C121.9,15.3,120.7,13.3,119.5,12.6z M110.2,5.1h4.2c1.4,0,2.5,1,2.5,2.5c0,1.6-1,2.5-2.6,2.5h-4V5.1z M114.5,20h-4.2v-5h4.1
		c1.6,0,2.6,0.9,2.7,2.5C117,19.1,116.1,20,114.5,20z"/>
	<path fill="#1D1D1B" d="M28.9,0.1c-5,0-8.7,3.6-8.7,8.6v7.7c0,5,3.7,8.6,8.7,8.6c5,0,8.7-3.6,8.7-8.6V8.7
		C37.6,3.7,33.9,0.1,28.9,0.1z M32.6,16.4c0,2.1-1.6,3.6-3.7,3.6c-2.1,0-3.7-1.5-3.7-3.6V8.7c0-2.1,1.6-3.6,3.7-3.6
		c2.1,0,3.7,1.5,3.7,3.6V16.4z"/>
	<rect x="168.9" y="0.2" fill="#1D1D1B" width="5" height="24.7"/>
	<polygon fill="#1D1D1B" points="179.4,12.5 188,0.2 182.4,0.2 173.8,12.5 182.5,25 188.1,25 	"/>
	<polygon fill="#1D1D1B" points="159.2,15 151.8,0.2 146.8,0.2 146.8,25 151.8,25 151.8,10 159.2,25 164.2,25 164.2,0.2 159.2,0.2 	
		"/>
	<path fill="#1D1D1B" d="M131.2,0.2L123.8,25h5l1.4-5h7.1l1.4,5h5l-7.4-24.7H131.2z M131.6,15l2.1-7.5l2.1,7.5H131.6z"/>
	<polygon fill="#1D1D1B" points="95.8,10 88.3,10 88.3,0.2 83.4,0.2 83.4,25 88.3,25 88.3,15 95.8,15 95.8,25 100.8,25 100.8,0.2 
		95.8,0.2 	"/>
	<polygon fill="#1D1D1B" points="53.6,44.9 46.2,30 41.2,30 41.2,54.8 46.1,54.8 46.1,39.9 53.6,54.8 58.6,54.8 58.6,30 53.6,30 	
		"/>
	<polygon fill="#1D1D1B" points="21.3,54.8 36.6,54.7 36.6,49.8 26.2,49.8 26.2,44.8 33.7,44.8 33.7,39.8 26.2,39.8 26.2,34.9 
		36.6,34.9 36.6,30 21.3,30 	"/>
	<path fill="#1D1D1B" d="M8.7,30c-5,0-8.7,3.6-8.7,8.6v7.7c0,5,3.7,8.6,8.7,8.6c5,0,8.7-3.6,8.7-8.6v-1.4h-5v1.4
		c0,2.1-1.6,3.6-3.7,3.6c-2.1,0-3.7-1.5-3.7-3.6v-7.7c0-2.1,1.6-3.6,3.7-3.6c2.1,0,3.7,1.5,3.7,3.6v1.3h5v-1.3
		C17.4,33.6,13.7,30,8.7,30z"/>
	<path fill="#1D1D1B" d="M8.7,0.1C3.9,0.1,0,2.6,0,7.2c0,9.2,12.4,6.4,12.4,10.7c0,1.7-1.2,2.1-3.6,2.1C6.3,20,5,19.6,5,17.5H0v0.3
		C0,22.6,3.8,25,8.7,25c4.8,0,8.7-2.5,8.7-7.1C17.4,8.5,5,11.6,5,7.2c0-1.7,1.5-2.1,3.6-2.1c2.2,0,3.9,0.4,3.9,2.5h4.9V7.3
		C17.4,2.5,13.7,0.1,8.7,0.1z"/>
	<polygon fill="#1D1D1B" points="61.8,34.9 68.5,34.9 68.5,54.8 73.4,54.8 73.4,34.9 80.1,34.9 80.1,30 61.8,30 	"/>
	<path fill="#1D1D1B" d="M93.3,30l-9.9,0v24.8h5v-9.9h0.8l6,9.9h5.6l-6-10.1c3.6-0.6,6.1-3.5,6.1-7.3l0,0
		C100.7,33.1,97.6,30,93.3,30z M93.2,39.9h-4.8v-5h5c1.4,0,2.5,1,2.5,2.5C95.8,39,94.8,39.9,93.2,39.9z"/>
	<polygon fill="#1D1D1B" points="105.3,54.7 120.6,54.7 120.6,49.7 110.2,49.7 110.2,44.8 117.7,44.8 117.7,39.8 110.2,39.8 
		110.2,34.8 120.6,34.8 120.6,30 105.3,30 	"/>
</g>
</svg>
